<?xml version="1.0" encoding="utf-8"?>
<!-- Generator: Adobe Illustrator 27.1.1, SVG Export Plug-In . SVG Version: 6.00 Build 0)  -->
<svg version="1.1" id="Layer_1"
     xmlns="http://www.w3.org/2000/svg"
     xmlns:xlink="http://www.w3.org/1999/xlink"
     x="0px" y="0px"
     viewBox="0 0 300 100"
     width="200" height="200"
     xml:space="preserve"
	 preserveAspectRatio="xMidYMid meet" >
<style type="text/css">
	.st0{fill:#012C57;}
	.st1{fill:#CC5500;}
	.st2{fill:#2AC4EA;}
	.st3{fill:#FFFFFF;}
</style>
<g>
	<path class="st0" d="M594.48,808.66h118.49L680.1,937.09c0,0-108.56,81.8-140.66,112.38L594.48,808.66z"/>
	<path class="st0" d="M671.69,972.12c0,0-17.68,107.63-56.54,159.66c-62.35,86.46-245.08,83.86-245.01-41.49
		c-1.13-79.85,73.52-128.51,117.22-86.37c-153.63-21.21-80.97,239.5,69.46,130.03C607.56,1095.36,655.12,997.95,671.69,972.12z"/>
	<g>
		<g>
			<g>
				<g>
					<path class="st0" d="M832.57,990.24c4.47,9.86,6.25,21.29,5.33,34.29c-0.41,7.62-2.24,18.59-5.49,32.92h-113.7
						c-2.95,16.67-0.2,28.35,8.23,35.05c5.08,4.17,11.84,6.25,20.27,6.25c8.94,0,16.77-2.54,23.47-7.62
						c3.56-2.74,7.06-6.55,10.52-11.43h44.35c-3.25,9.86-10.52,19.87-21.79,30.03c-17.68,16.16-39.32,24.23-64.93,24.23
						c-21.14,0-38.33-6.81-51.59-20.42c-13.26-13.62-16.64-35.76-10.13-66.45c6.1-28.75,18.06-50.8,35.89-66.15
						c17.83-15.34,38.38-23.01,61.65-23.01c13.82,0,25.73,2.59,35.74,7.77C820.4,970.88,827.79,979.06,832.57,990.24z
						 M725.88,1028.8h67.52c1.73-11.48,0.08-20.2-4.95-26.14c-5.03-5.94-12.17-8.92-21.41-8.92c-10.06,0-18.52,3.15-25.38,9.45
						C734.8,1009.5,729.54,1018.03,725.88,1028.8z"/>
				</g>
			</g>
			<g>
				<g>
					<path class="st0" d="M845.38,994.81l6.55-30.94h23.17l9.91-46.33h42.98l-9.91,46.33h26.98l-6.55,30.94h-26.98l-18.75,87.79
						c-1.42,6.81-1.45,11.05-0.08,12.73c1.37,1.68,6.48,2.52,15.32,2.52c1.32,0,2.72-0.02,4.19-0.08c1.47-0.05,2.97-0.13,4.5-0.23
						L909.7,1130l-20.73,0.76c-20.63,0.71-33.89-2.84-39.78-10.67c-3.76-4.98-4.57-12.65-2.44-23.01l21.79-102.27H845.38z"/>
				</g>
			</g>
			<path class="st1" d="M1115.61,1043.28c-5.49,25.81-16.13,47.2-31.93,64.16c-15.8,16.97-34.62,25.45-56.47,25.45
				c-13.72,0-24.13-2.74-31.24-8.23c-4.27-3.25-8.44-8.94-12.5-17.07l-4.42,20.88h-42.52l47.55-224.35h43.28l-16.92,79.86
				c7.11-7.72,14.43-13.62,21.95-17.68c8.84-5.08,19.3-7.62,31.4-7.62c21.84,0,37.26,7.88,46.26,23.62
				S1120.89,1018.39,1115.61,1043.28z M1069.12,1047.85c2.54-11.79,3.1-21.54,1.68-29.26c-2.74-14.63-11.89-21.95-27.43-21.95
				c-15.75,0-28.1,7.16-37.04,21.49c-4.67,7.62-8.28,17.48-10.82,29.57c-3.05,14.23-2.41,26.01,1.91,35.36
				c4.32,9.35,12.93,14.02,25.83,14.02c11.18,0,20.83-4.52,28.96-13.56C1060.33,1074.47,1065.97,1062.58,1069.12,1047.85z"/>
			<path class="st1" d="M1209.04,1027.43c8.33-1.01,14.38-2.29,18.14-3.81c6.71-2.64,10.67-6.76,11.89-12.35
				c1.42-6.81,0.05-11.51-4.11-14.1c-4.17-2.59-10.82-3.89-19.97-3.89c-10.26,0-18.09,2.54-23.47,7.62
				c-3.76,3.76-6.86,8.84-9.3,15.24h-41.91c4.06-14.53,10.67-26.47,19.81-35.82c14.63-14.63,35.92-21.95,63.86-21.95
				c18.19,0,33.58,3.61,46.18,10.82c12.6,7.22,16.77,20.83,12.5,40.85l-16.31,76.21c-1.12,5.28-2.34,11.69-3.66,19.2
				c-0.91,5.69-0.89,9.55,0.08,11.58c0.96,2.03,2.72,3.71,5.26,5.03l-1.22,6.4h-47.25c-0.61-3.35-0.86-6.5-0.76-9.45
				c0.1-2.95,0.4-6.3,0.91-10.06c-7.42,6.5-15.5,12.04-24.23,16.61c-10.57,5.38-21.74,8.08-33.53,8.08
				c-15.04,0-26.55-4.29-34.52-12.88c-7.98-8.59-10.29-20.75-6.93-36.5c4.37-20.42,15.39-35.21,33.07-44.35
				c9.65-4.98,23.11-8.54,40.39-10.67L1209.04,1027.43z M1231.14,1047.7c-3.05,1.73-6.1,3.12-9.14,4.19
				c-3.05,1.07-7.11,2.06-12.19,2.97l-10.06,1.83c-9.55,1.63-16.56,3.61-21.03,5.94c-7.52,3.96-12.14,10.11-13.87,18.44
				c-1.63,7.42-0.74,12.78,2.67,16.08c3.4,3.3,8.05,4.95,13.95,4.95c9.35,0,18.54-2.74,27.59-8.23
				c9.04-5.49,15.29-15.49,18.75-30.02L1231.14,1047.7z"/>
			<path class="st1" d="M1405.36,1021.94c0.51-6.2-0.41-11.79-2.74-16.76c-3.46-6.71-10.31-10.06-20.58-10.06
				c-14.63,0-26.17,7.27-34.6,21.79c-4.47,7.72-8.08,17.98-10.82,30.79c-2.54,12.19-3.2,22-1.98,29.42
				c2.23,13.82,10.52,20.73,24.84,20.73c10.16,0,17.96-2.74,23.4-8.23c5.43-5.49,9.53-12.6,12.27-21.34h44.35
				c-3.76,13.21-11.18,25.71-22.25,37.49c-17.68,19-39.88,28.5-66.6,28.5c-26.72,0-44.68-7.93-53.88-23.78
				c-9.2-15.85-11.1-36.43-5.72-61.73c5.99-28.55,17.65-50.75,34.98-66.6c17.32-15.85,38.23-23.78,62.72-23.78
				c20.83,0,36.88,4.67,48.16,14.02c11.28,9.35,15.6,25.86,12.96,49.53H1405.36z"/>
			<path class="st1" d="M1491.79,904.58h42.68l-25.76,121.01l67.37-62.49h53.8l-71.63,63.56l38.86,101.81h-52.43l-24.69-71.02
				l-22.1,18.75l-10.97,52.28h-42.68L1491.79,904.58z"/>
		</g>
	</g>
	<path class="st2" d="M601.51,1064.66c6.45-9.56,12.89-20.15,19.27-31.82l45.72-75.5l-134.63,115.76c0,0-30.12,23.81-52.62,8.64
		c-22.5-15.17-22.14-39.48-14.88-56.54c-116.21,32.89,13.98,221.81,137.12,39.5h0L601.51,1064.66z"/>
</g>
</svg>
